:SAMPLES-PER-SECOND 30
:FULLY-SPECIFIED
:DEGREES
363
root  6.043222382 40.19222109 5.414422103 -167.809021 -57.24209976 165.8640137
lowerback  16.23049927 3.528059959 2.495219946
upperback  5.324160099 4.703390121 1.366359949
thorax  -3.31362009 2.160809994 -0.8334370255
lowerneck  -9.225020409 12.04500008 4.020009995
upperneck  13.89360046 16.19169998 -3.306080103
head  6.32656002 7.804560184 -0.2873339951
lclavicle  0 -9.442270133e-015 7.951389973e-016
lhumerus  -26.51000023 6.224309921 75.70960236
lradius  2.752248427e-031 -2.2122325e-031 141.2079926
lwrist  -7.062250077e-031 -0 17.12719917
lhand  -1.496451383e-031 -27.76390076 20.11240005
lfingers  90 7.125020027 -90
lthumb  89.89689403 5.08795885 91.16245106
rclavicle  0 -9.442270133e-015 7.951389973e-016
rhumerus  -13.58979988 32.15309906 -80.49539948
rradius  -1.064063202e-031 3.366988794e-031 107.538002
rwrist  0 1.765562519e-031 -39.10079956
rhand  -7.920061211e-032 -33.2840004 9.303460121
rfingers  -90 -7.125020027 -90
rthumb  -92.93752616 -24.25625642 -97.11982154
rfemur  -18.11610031 14.95370007 -8.644749641
rtibia  -0 0 54.57920074
rfoot  -4.421946856e-032 -3.455729961 0.3919450045
rtoes  5.373923086 19.29304026 -105.8922705
lfemur  -24.25219917 8.416410446 -5.273869991
ltibia  -0 0 52.66040039
lfoot  -0 15.39210033 -10.50290012
ltoes  -4.250644065 -19.5611806 -102.515957
364
root  5.998888917 40.20377632 5.453022258 -167.1719971 -57.17010117 165.4190063
lowerback  16.33289909 3.538779974 1.866009951
upperback  5.316390038 4.62266016 1.378960013
thorax  -3.432090044 2.116980076 -0.4619260132
lowerneck  -9.310700417 12.32859993 4.071909904
upperneck  13.13619995 16.6114006 -3.729510069
head  6.156700134 7.997469902 -0.3991250098
lclavicle  0 -9.442270133e-015 7.951389973e-016
lhumerus  -26.2234993 7.451019764 73.16000366
lradius  2.791117889e-031 -2.162985198e-031 142.2259979
lwrist  -7.062250077e-031 8.827812596e-032 18.66270065
lhand  -1.496451383e-031 -27.76390076 20.11240005
lfingers  90 7.125020027 -90
lthumb  89.89689403 5.08795885 91.16245106
rclavicle  0 -9.442270133e-015 7.951389973e-016
rhumerus  -13.88850021 30.98430061 -79.99729919
rradius  -1.125759692e-031 3.346865571e-031 108.5910034
rwrist  7.062250077e-031 2.648343779e-031 -38.60580063
rhand  -7.920061211e-032 -33.2840004 9.303460121
rfingers  -90 -7.125020027 -90
rthumb  -92.93752616 -24.25625642 -97.11982154
rfemur  -18.89410019 15.55249977 -9.091460228
rtibia  -0 0 54.70539856
rfoot  -4.702481724e-032 -4.212900162 0.2666139901
rtoes  5.373923086 19.29304026 -105.8922705
lfemur  -24.50349998 7.808420181 -4.955190182
ltibia  -0 0 51.92539978
lfoot  -0 13.71829987 -9.338219643
ltoes  -4.250644065 -19.5611806 -102.515957
365
root  5.957000087 40.19688884 5.494466541 -166.6630249 -57.25479889 165.059021
lowerback  16.52899933 3.525589943 1.330469966
upperback  5.275710106 4.528100014 1.418280005
thorax  -3.627500057 2.066260099 -0.1176870018
lowerneck  -9.257069588 12.56630039 4.285220146
upperneck  12.36209965 16.96419907 -4.306809902
head  5.986169815 8.157429695 -0.5932379961
lclavicle  0 -9.442270133e-015 7.951389973e-016
lhumerus  -25.67779922 8.534640312 70.62840271
lradius  2.822861045e-031 -2.121390949e-031 143.0749969
lwrist  -7.062250077e-031 8.827812596e-032 20.05809975
lhand  -1.496451383e-031 -27.76390076 20.11240005
lfingers  90 7.125020027 -90
lthumb  89.89689403 5.08795885 91.16245106
rclavicle  0 -9.442270133e-015 7.951389973e-016
rhumerus  -14.05459976 29.8166008 -79.47619629
rradius  -1.192298133e-031 3.323743251e-031 109.7340012
rwrist  7.062250077e-031 8.827812596e-032 -38.12340164
rhand  -7.920061211e-032 -33.2840004 9.303460121
rfingers  -90 -7.125020027 -90
rthumb  -92.93752616 -24.25625642 -97.11982154
rfemur  -19.39459991 16.19079971 -9.407549858
rtibia  -0 0 54.55210114
rfoot  -4.707531686e-032 -4.977980137 -0.1144279987
rtoes  5.373923086 19.29304026 -105.8922705
lfemur  -24.7303009 6.991149902 -4.50056982
ltibia  -0 0 51.13990021
lfoot  -0 12.22210026 -8.138719559
ltoes  -4.250644065 -19.5611806 -102.515957
366
root  5.914200009 40.16844381 5.533199986 -166.4589844 -57.45560074 165.0079956
lowerback  16.74869919 3.497469902 0.9473019838
upperback  5.237299919 4.437620163 1.520370007
thorax  -3.823889971 2.017750025 0.2067770064
lowerneck  -9.21339035 12.78059959 4.589250088
upperneck  11.69709969 17.27729988 -4.930049896
head  5.865620136 8.296190262 -0.810690999
lclavicle  0 -9.442270133e-015 7.951389973e-016
lhumerus  -24.93120003 9.48554039 68.21990204
lradius  2.849513975e-031 -2.085452983e-031 143.8009949
lwrist  -7.062250077e-031 1.765562519e-031 21.06719971
lhand  -1.496451383e-031 -27.76390076 20.11240005
lfingers  90 7.125020027 -90
lthumb  89.89689403 5.08795885 91.16245106
rclavicle  0 -9.442270133e-015 7.951389973e-016
rhumerus  -14.04599953 28.46789932 -78.97049713
rradius  -1.261471102e-031 3.298110777e-031 110.9309998
rwrist  7.062250077e-031 1.765562519e-031 -37.81840134
rhand  -7.920061211e-032 -33.2840004 9.303460121
rfingers  -90 -7.125020027 -90
rthumb  -92.93752616 -24.25625642 -97.11982154
rfemur  -19.68160057 16.98010063 -9.46173954
rtibia  -0 0 54.0929985
rfoot  -4.991698484e-032 -5.856510162 -0.4398550093
rtoes  5.373923086 19.29304026 -105.8922705
lfemur  -24.89749908 6.100029945 -3.781589985
ltibia  -0 0 50.30559921
lfoot  -0 11.09799957 -7.078999996
ltoes  -4.250644065 -19.5611806 -102.515957
367
root  5.865155618 40.11288741 5.563666501 -166.3939819 -57.72909927 165.1920166
lowerback  16.80669975 3.410880089 0.7028449774
upperback  5.175759792 4.295300007 1.643620014
thorax  -3.94810009 1.947119951 0.4954630136
lowerneck  -9.070529938 12.99540043 4.846119881
upperneck  11.15200043 17.58720016 -5.45968008
head  5.756790161 8.43791008 -0.9961339831
lclavicle  0 -9.442270133e-015 7.951389973e-016
lhumerus  -24.09550095 10.41600037 65.93650055
lradius  2.871160237e-031 -2.055549301e-031 144.3999939
lwrist  -7.062250077e-031 -0 21.58279991
lhand  -1.496451383e-031 -27.76390076 20.11240005
lfingers  90 7.125020027 -90
lthumb  89.89689403 5.08795885 91.16245106
rclavicle  0 -9.442270133e-015 7.951389973e-016
rhumerus  -13.85820007 27.16589928 -78.52619934
rradius  -1.327238747e-031 3.272198244e-031 112.0780029
rwrist  7.062250077e-031 6.179468817e-031 -37.61009979
rhand  -7.920061211e-032 -33.2840004 9.303460121
rfingers  -90 -7.125020027 -90
rthumb  -92.93752616 -24.25625642 -97.11982154
rfemur  -19.85020065 17.81089973 -9.319080353
rtibia  -0 0 53.30939865
rfoot  -4.446003599e-032 -6.888879776 -0.2797209918
rtoes  5.373923086 19.29304026 -105.8922705
lfemur  -25.1480999 5.364429951 -2.899790049
ltibia  -0 0 49.44649887
lfoot  4.48178264e-032 9.984379768 -6.367750168
ltoes  -4.250644065 -19.5611806 -102.515957
